<svg xmlns="http://www.w3.org/2000/svg" width="1143" height="917" viewBox="0 0 1143 917">
<g>
<path d="M 561.68 477.40 C535.00,482.11 507.61,478.19 483.50,466.22 C476.41,462.70 462.10,452.75 454.98,446.40 C451.65,443.43 448.27,441.00 447.46,441.00 C446.66,441.00 446.00,440.13 446.00,439.06 C446.00,437.99 445.57,436.85 445.05,436.53 C441.37,434.26 428.64,414.61 424.22,404.40 C402.98,355.24 413.39,300.25 450.88,263.53 C454.80,259.69 458.00,255.99 458.00,255.31 C458.00,254.62 458.61,254.30 459.36,254.58 C460.11,254.87 462.02,254.03 463.61,252.70 C484.57,235.28 521.47,224.89 551.30,228.02 C573.52,230.36 590.31,236.28 607.13,247.70 C612.64,251.44 618.02,255.00 619.09,255.60 C620.16,256.21 625.91,261.66 631.86,267.72 C641.02,277.04 643.54,280.35 648.20,289.12 C658.16,307.87 663.32,324.49 664.96,343.05 C667.74,374.71 656.69,409.76 636.90,432.03 C633.66,435.68 631.00,439.15 631.00,439.74 C631.00,440.33 629.70,441.64 628.11,442.66 C626.52,443.67 620.84,448.18 615.49,452.67 C600.59,465.17 581.64,473.88 561.68,477.40 ZM 519.50 475.48 C530.76,477.56 555.64,476.84 566.58,474.12 C593.99,467.31 615.52,454.18 632.71,433.79 C651.43,411.59 661.24,386.96 662.70,358.50 C665.17,310.43 637.34,263.20 594.29,242.39 C575.02,233.07 557.47,229.49 534.63,230.23 C516.78,230.80 505.27,233.43 487.32,241.01 C462.16,251.63 442.48,270.27 430.41,294.91 C420.53,315.06 417.20,327.27 416.31,346.71 C415.12,372.58 420.71,395.67 432.95,415.50 C435.67,419.90 438.68,425.04 439.64,426.93 C442.11,431.75 460.30,449.86 467.64,454.80 C481.21,463.92 502.17,472.28 519.50,475.48 ZM 387.39 654.48 L 374.27 681.50 L 361.39 681.65 C346.66,681.83 341.70,681.07 334.40,677.50 C326.26,673.51 317.82,662.92 315.69,654.00 C315.08,651.47 313.66,629.13 310.04,565.50 C308.95,546.25 307.78,526.79 307.44,522.25 L 306.82 514.00 L 348.91 514.00 L 349.40 517.25 C349.67,519.04 350.60,543.00 351.47,570.50 C353.12,622.93 353.55,629.85 355.08,628.32 C355.59,627.81 360.01,618.65 364.90,607.95 C369.80,597.25 381.44,571.85 390.77,551.50 L 407.74 514.50 L 431.31 514.23 L 454.89 513.96 L 450.05 524.23 C447.40,529.88 437.27,550.92 427.55,571.00 C417.83,591.08 407.77,611.99 405.19,617.48 C402.61,622.96 394.60,639.61 387.39,654.48 ZM 195.09 663.00 L 190.50 681.50 L 140.50 681.63 C113.00,681.71 87.94,681.39 84.80,680.92 C69.14,678.62 56.24,665.43 54.41,649.85 C53.66,643.45 53.93,642.03 64.03,600.00 C81.09,529.03 80.16,531.86 88.89,523.70 C96.60,516.49 101.37,514.75 114.85,514.22 C125.57,513.80 126.17,513.88 125.64,515.64 C125.02,517.65 110.51,577.85 106.51,595.00 C105.16,600.78 102.47,612.14 100.53,620.26 C96.74,636.13 96.32,639.92 98.20,641.80 C99.10,642.70 111.79,643.00 149.14,643.00 C176.50,643.00 199.06,643.34 199.28,643.75 C199.49,644.16 197.61,652.83 195.09,663.00 ZM 247.84 680.25 C247.02,681.82 245.04,682.00 228.43,682.00 C212.97,682.00 209.84,681.76 209.37,680.51 C209.05,679.69 212.02,665.85 215.97,649.76 C219.91,633.67 226.71,605.93 231.09,588.12 C235.46,570.31 239.76,552.54 240.64,548.62 C243.91,534.18 251.90,522.67 262.45,517.22 C266.69,515.03 269.16,514.54 277.90,514.19 L 288.30 513.76 L 287.62 516.13 C287.26,517.43 286.54,520.53 286.03,523.00 C285.00,527.97 275.88,566.11 261.14,627.00 C258.41,638.28 254.50,654.47 252.46,663.00 C250.41,671.53 248.33,679.29 247.84,680.25 ZM 534.48 680.03 C534.15,680.56 532.37,681.00 530.51,681.00 C528.09,681.00 526.58,680.28 525.13,678.44 C521.98,674.43 519.51,665.66 519.89,659.79 C519.95,658.85 522.01,656.91 524.46,655.47 C530.62,651.86 534.64,646.96 536.46,640.83 C537.31,637.98 538.00,635.10 538.00,634.45 C538.00,632.52 541.99,628.03 545.90,625.56 C549.07,623.56 550.07,621.88 553.44,612.88 C556.76,604.00 557.34,601.27 557.43,594.00 C557.53,585.27 558.28,582.87 561.91,579.58 C563.06,578.54 564.00,577.28 564.00,576.79 C564.00,576.29 565.34,574.21 566.99,572.16 C569.99,568.42 576.00,552.57 576.00,548.37 C576.00,546.48 575.30,546.02 571.62,545.47 C564.45,544.39 563.84,544.81 559.35,554.00 C555.58,561.70 555.24,563.02 555.72,568.05 C556.21,573.30 556.09,573.71 553.43,575.45 C550.92,577.10 550.34,577.14 548.06,575.86 C544.54,573.90 544.36,570.71 547.52,566.56 C549.25,564.29 550.83,560.11 552.03,554.62 C554.73,542.27 557.00,538.35 562.25,536.94 C567.84,535.44 568.31,535.08 566.93,533.41 C565.97,532.26 566.23,532.00 568.34,532.00 C569.91,532.00 571.35,531.21 572.00,530.00 C572.59,528.90 573.57,528.00 574.17,528.00 C574.78,528.00 577.23,526.20 579.62,524.00 C582.94,520.94 584.77,520.00 587.42,520.00 C589.65,520.00 591.35,519.34 592.19,518.16 C596.44,512.18 609.47,512.90 611.63,519.24 C612.88,522.90 612.69,531.24 611.28,534.75 C610.17,537.51 609.47,538.00 606.61,538.00 C601.39,538.00 600.66,539.79 603.54,545.48 C605.23,548.81 606.00,551.99 606.00,555.61 C606.00,558.51 606.49,561.18 607.08,561.55 C608.37,562.35 613.52,556.76 615.48,552.45 C616.33,550.57 616.65,547.79 616.30,545.23 C615.80,541.46 615.99,540.96 618.37,539.88 C620.36,538.97 621.61,538.96 623.50,539.82 C626.53,541.20 626.66,543.50 623.95,547.50 C622.84,549.15 620.39,553.78 618.51,557.78 C615.04,565.19 606.75,576.00 604.54,576.00 C603.15,576.00 601.61,572.98 600.05,567.19 L 598.98 563.20 L 594.23 567.85 C588.11,573.85 585.15,579.26 586.85,581.33 C587.53,582.14 589.30,583.09 590.79,583.44 C592.28,583.78 594.85,584.70 596.50,585.46 C598.15,586.23 602.10,587.85 605.27,589.06 C613.86,592.32 619.00,596.37 619.00,599.86 C619.00,605.61 613.94,610.52 595.50,622.67 C587.52,627.93 583.00,631.85 583.00,633.52 C583.00,634.15 581.10,636.65 578.78,639.08 C576.46,641.51 573.42,645.49 572.03,647.93 C568.96,653.31 567.40,653.98 565.86,650.58 C564.90,648.48 565.10,646.31 566.94,638.75 C568.18,633.66 569.66,628.94 570.22,628.25 C570.79,627.56 572.97,627.00 575.09,627.00 C580.12,627.00 585.13,622.66 589.03,614.94 C590.92,611.20 593.17,608.44 595.51,606.99 C597.49,605.77 598.97,604.66 598.80,604.52 C598.64,604.38 594.10,604.02 588.72,603.71 L 578.95 603.16 L 575.58 609.83 C572.22,616.49 567.71,621.88 545.96,645.24 L 534.42 657.63 L 533.09 665.81 C531.90,673.16 531.93,674.25 533.42,676.52 C534.34,677.92 534.81,679.49 534.48,680.03 ZM 536.27 810.50 L 534.50 817.50 L 522.25 817.78 C521.14,817.81 520.13,817.84 519.20,817.86 C514.19,818.02 511.64,818.09 510.65,816.89 C509.61,815.63 510.27,812.98 511.60,807.57 C511.84,806.61 512.10,805.55 512.38,804.40 C513.69,798.95 516.00,789.04 517.52,782.37 L 520.28 770.24 L 504.11 738.62 L 487.93 707.00 L 491.72 707.07 C493.80,707.10 500.38,707.66 506.33,708.32 L 517.17 709.50 L 523.62 722.00 C527.17,728.88 531.44,737.10 533.11,740.28 L 536.15 746.07 L 539.33 744.13 C541.07,743.06 544.53,741.65 547.00,741.00 C549.47,740.36 552.62,738.80 554.00,737.54 C557.20,734.60 560.34,733.00 562.88,733.00 C565.85,733.00 566.22,731.59 564.41,727.08 C561.01,718.58 551.39,713.85 548.85,719.43 C547.45,722.51 543.36,724.23 538.40,723.82 C535.28,723.56 534.36,723.00 533.62,720.89 C531.88,715.91 533.48,713.35 540.40,710.05 C543.91,708.37 548.30,707.00 550.15,707.00 C553.55,707.00 566.27,711.00 575.50,714.96 C581.78,717.66 591.00,726.50 591.00,729.83 C591.00,734.09 584.68,744.32 577.14,752.23 C570.55,759.14 568.51,760.57 557.58,765.88 L 545.39 771.81 L 541.71 787.66 C539.69,796.37 537.24,806.65 536.27,810.50 ZM 513.43 389.42 L 512.78 392.00 L 492.14 391.92 C469.06,391.83 465.96,391.22 459.22,385.46 C454.06,381.04 450.00,373.01 450.00,367.22 C450.00,364.81 451.59,356.24 453.54,348.17 C455.48,340.10 459.34,324.05 462.10,312.50 C464.86,300.95 467.83,289.54 468.68,287.14 C472.27,277.13 481.33,271.13 494.18,270.25 C499.09,269.91 502.00,270.09 502.00,270.72 C502.00,271.27 499.07,283.82 495.49,298.61 C481.56,356.11 480.66,360.24 481.71,361.90 C482.56,363.25 485.47,363.54 500.36,363.77 C516.82,364.03 518.00,364.17 518.00,365.91 C518.00,367.64 514.92,383.49 513.43,389.42 Z" fill="#FFC107"/>
<path d="M 461.00 499.46 C461.00,500.42 457.61,499.94 453.00,498.33 C444.16,495.25 431.11,485.03 398.30,455.49 C375.10,434.61 349.18,408.92 343.06,400.74 C340.21,396.94 338.36,395.27 337.62,395.84 C337.00,396.32 335.38,397.02 334.00,397.39 C288.15,409.83 248.46,412.40 221.77,404.66 C204.74,399.72 191.88,392.84 177.37,380.92 C173.36,377.63 167.79,374.15 164.64,372.97 C142.46,364.67 116.65,333.77 115.22,313.82 C114.43,302.84 118.49,282.07 124.66,265.50 C128.68,254.70 139.06,233.77 146.99,220.50 C154.74,207.53 156.63,205.00 158.57,205.00 C159.26,205.00 161.51,209.06 163.56,214.02 C165.62,218.98 167.44,222.89 167.61,222.72 C167.78,222.55 167.28,219.67 166.50,216.31 C165.71,212.95 164.59,207.19 164.00,203.51 C162.61,194.81 164.04,189.13 171.30,174.50 C177.46,162.08 181.44,151.51 185.98,135.50 C191.63,115.63 194.60,110.89 206.00,103.54 C217.70,96.00 229.28,92.27 251.00,89.03 C266.84,86.66 273.85,86.49 278.31,88.36 C281.63,89.74 288.26,96.88 296.07,107.50 C298.50,110.80 300.72,113.72 300.99,114.00 C307.57,120.50 310.00,124.25 310.00,127.87 C310.00,134.47 306.35,144.53 302.91,147.43 C299.08,150.65 295.00,150.90 295.00,147.91 C295.00,146.23 293.92,146.96 289.59,151.54 L 284.19 157.25 L 277.84 156.57 C273.00,156.06 270.56,156.29 267.55,157.55 C265.09,158.57 262.28,158.98 260.11,158.63 C258.19,158.32 254.74,158.54 252.44,159.12 C248.43,160.13 241.70,159.09 235.74,156.53 C234.46,155.98 234.12,156.16 234.51,157.17 C234.80,157.93 233.63,162.59 231.90,167.53 C227.95,178.82 227.28,186.95 229.41,198.00 C231.61,209.40 232.50,224.62 231.23,229.16 C230.66,231.23 230.59,233.19 231.08,233.68 C231.57,234.17 231.09,235.09 229.98,235.78 C228.29,236.84 228.00,236.76 228.00,235.26 C227.99,234.28 226.55,235.81 224.75,238.69 C222.96,241.55 219.77,246.42 217.65,249.51 C215.53,252.61 214.02,255.35 214.28,255.61 C215.13,256.46 220.82,251.01 224.62,245.70 C226.66,242.84 229.37,239.49 230.63,238.25 L 232.92 235.99 L 234.54 241.25 C235.43,244.14 236.41,250.35 236.71,255.06 C237.40,265.94 235.42,273.42 230.34,279.04 C226.27,283.55 226.78,284.16 231.57,280.52 C237.43,276.04 248.96,270.90 258.82,268.35 C267.58,266.09 269.88,265.89 283.00,266.32 C293.76,266.67 299.29,267.33 304.43,268.88 C311.73,271.07 313.03,271.10 310.52,269.02 C309.69,268.32 309.00,267.22 309.00,266.57 C309.00,261.91 337.61,249.73 356.28,246.45 C373.15,243.48 387.36,244.53 413.00,250.65 C423.31,253.11 426.40,253.40 442.86,253.45 L 461.22 253.50 L 466.10 249.83 C468.78,247.82 474.47,244.51 478.74,242.48 C481.46,241.19 484.05,240.00 486.55,238.92 C477.86,242.74 470.00,247.39 463.61,252.70 C462.02,254.03 460.11,254.87 459.36,254.58 C458.61,254.30 458.00,254.62 458.00,255.31 C458.00,255.99 454.80,259.69 450.88,263.53 C443.82,270.44 437.72,278.01 432.61,286.06 C434.05,283.68 435.43,281.56 436.65,279.90 C439.04,276.65 441.00,273.67 441.00,273.27 C441.00,272.87 444.68,268.84 449.18,264.32 L 457.36 256.10 L 440.93 256.24 C427.12,256.37 422.99,256.04 415.00,254.17 C388.28,247.92 387.28,247.78 372.00,248.31 C355.74,248.87 344.32,251.34 329.36,257.53 C320.69,261.12 313.00,265.46 313.00,266.76 C313.00,267.17 315.02,268.77 317.48,270.33 C322.43,273.46 327.00,278.38 327.00,280.59 C327.00,281.64 325.13,281.08 320.03,278.52 C316.20,276.59 309.56,273.78 305.28,272.27 C297.98,269.71 296.45,269.54 280.50,269.53 C263.85,269.53 263.30,269.60 254.02,272.82 C248.81,274.63 242.06,277.52 239.02,279.24 C232.18,283.11 219.02,296.05 216.12,301.75 C214.17,305.58 211.00,307.58 211.00,304.98 C211.00,301.10 222.71,282.32 228.40,277.06 C233.60,272.24 235.51,258.05 232.60,245.70 C231.85,242.52 231.04,239.70 230.79,239.45 C230.54,239.20 228.64,241.46 226.57,244.46 C221.41,251.96 209.94,262.23 210.02,259.29 C210.03,258.85 212.96,254.45 216.54,249.50 C229.55,231.47 230.83,225.61 227.00,201.50 C224.40,185.18 224.70,178.93 228.57,168.00 C230.03,163.88 231.20,159.70 231.17,158.73 C231.15,157.75 231.54,157.22 232.06,157.54 C233.80,158.61 233.02,157.33 230.77,155.40 C228.95,153.85 228.79,153.83 229.89,155.25 C232.26,158.32 230.51,157.13 226.95,153.26 C224.28,150.37 224.15,150.08 226.37,152.01 C229.22,154.48 229.24,154.48 228.56,152.26 C227.99,150.39 228.17,150.12 229.68,150.65 C230.68,151.00 229.04,148.75 226.03,145.64 C223.03,142.54 220.18,140.00 219.70,140.00 C219.22,140.00 220.02,142.14 221.47,144.75 C222.92,147.36 223.45,148.82 222.63,148.00 C220.78,146.13 213.67,131.99 214.28,131.39 C214.52,131.14 217.29,134.08 220.43,137.92 C231.50,151.44 238.29,156.00 247.40,156.00 C250.41,156.00 254.03,155.56 255.44,155.02 C257.19,154.36 258.80,154.41 260.49,155.18 C262.49,156.09 263.75,155.96 266.86,154.56 C269.93,153.18 272.10,152.96 277.20,153.50 L 283.65 154.20 L 287.68 149.35 C294.92,140.64 295.67,137.13 291.38,132.03 C288.19,128.25 289.00,126.87 292.77,129.66 C296.62,132.52 297.97,135.68 297.99,141.87 C298.00,147.21 298.01,147.23 300.25,145.78 C302.78,144.14 306.91,133.37 306.96,128.26 C306.99,125.79 305.87,123.74 302.25,119.64 C299.64,116.68 295.02,110.98 292.00,106.97 C280.45,91.65 278.31,90.00 270.04,90.00 C264.25,90.00 248.00,92.25 237.00,94.58 C215.68,99.10 200.62,107.84 195.05,118.94 C193.51,122.00 190.61,130.35 188.59,137.50 C183.98,153.85 182.38,158.04 173.75,176.26 C167.18,190.14 166.76,191.43 166.82,197.79 C166.90,205.96 170.28,220.35 176.86,240.52 C181.72,255.42 184.59,266.74 183.72,267.61 C183.48,267.86 182.74,265.35 182.09,262.03 C181.43,258.71 180.66,256.00 180.36,256.00 C179.82,256.00 180.70,262.93 181.68,266.38 C182.01,267.52 181.81,268.00 181.17,267.61 C180.60,267.25 179.59,264.39 178.92,261.23 C178.26,258.08 177.52,256.04 177.29,256.69 C177.06,257.35 177.35,259.60 177.93,261.69 C178.51,263.79 178.97,266.40 178.95,267.50 C178.90,269.76 173.81,251.59 173.62,248.50 C173.55,247.40 173.24,246.27 172.91,246.00 C172.59,245.73 171.80,243.93 171.15,242.00 C168.37,233.68 158.45,209.00 157.90,209.00 C156.71,209.00 141.77,235.20 135.53,248.24 C127.42,265.18 123.57,276.25 120.48,291.52 C117.30,307.19 117.28,315.64 120.40,323.21 C128.63,343.22 147.75,362.84 166.45,370.44 C169.24,371.57 175.47,375.65 180.31,379.50 C209.18,402.47 236.57,409.26 281.28,404.52 C303.99,402.11 334.00,395.75 334.00,393.35 C334.00,393.12 332.85,390.67 331.45,387.89 C329.71,384.47 328.99,381.62 329.20,379.00 L 329.50 375.15 L 332.77 380.82 C334.56,383.95 335.17,385.49 334.12,384.26 C331.25,380.92 330.80,383.70 333.27,389.41 C335.01,393.43 335.11,394.32 333.92,395.07 C332.84,395.76 333.03,395.97 334.75,395.98 C336.38,396.00 337.00,395.42 337.00,393.88 C337.00,392.01 337.20,391.92 338.71,393.13 C339.93,394.11 339.73,393.36 338.03,390.50 C334.92,385.26 335.66,386.02 342.14,394.66 C350.05,405.22 361.52,417.49 375.29,430.13 C382.01,436.29 390.43,444.07 394.00,447.42 C420.03,471.77 443.59,491.19 451.03,494.42 C457.20,497.09 457.21,497.01 452.51,486.02 C447.78,474.97 446.02,468.56 445.04,458.77 C444.69,455.27 444.67,453.35 443.97,451.71 C442.83,449.01 439.84,447.08 430.50,440.16 C421.17,433.24 406.01,419.19 399.82,411.74 C397.44,408.87 401.12,412.19 408.00,419.11 C419.03,430.21 426.83,436.78 424.49,432.99 C424.08,432.32 424.27,431.45 424.92,431.05 C425.68,430.58 424.10,428.78 420.47,425.98 C414.68,421.51 404.37,410.81 400.74,405.50 C398.17,401.75 400.01,403.60 407.50,412.31 C415.25,421.34 426.81,430.52 435.79,434.79 C439.80,436.70 443.32,438.01 443.62,437.71 C443.92,437.41 441.96,434.32 439.26,430.83 C436.56,427.35 433.32,422.48 432.07,420.00 C431.08,418.06 429.27,414.49 427.61,411.23 C433.25,421.60 442.08,434.70 445.05,436.53 C445.57,436.85 446.00,437.99 446.00,439.06 C446.00,440.13 446.66,441.00 447.46,441.00 C448.27,441.00 451.65,443.43 454.98,446.40 C460.78,451.58 471.35,459.14 478.91,463.67 C467.69,457.97 461.81,453.89 455.00,447.44 C451.50,444.12 448.51,442.51 441.50,440.18 C436.55,438.54 432.35,437.34 432.17,437.51 C431.99,437.68 434.58,439.68 437.93,441.95 C441.27,444.22 444.69,447.13 445.53,448.41 C446.37,449.69 447.50,454.62 448.04,459.37 C449.13,468.97 450.23,472.68 456.61,488.21 C459.02,494.10 461.00,499.16 461.00,499.46 ZM 627.66 489.25 C625.91,493.86 625.48,496.00 626.32,496.00 C628.82,496.00 640.43,488.31 650.45,480.00 C666.66,466.56 708.37,428.41 720.56,415.87 C726.64,409.62 733.99,401.46 736.90,397.75 C742.35,390.79 743.40,389.80 742.30,392.66 C741.87,393.78 742.04,394.09 742.83,393.61 C743.47,393.21 744.00,393.36 744.00,393.94 C744.00,396.57 745.73,394.43 748.36,388.55 C752.07,380.24 751.30,378.14 746.97,384.75 C745.11,387.59 743.44,389.77 743.26,389.59 C743.08,389.42 744.53,386.85 746.48,383.89 C748.42,380.94 750.27,377.73 750.58,376.76 C750.88,375.79 751.55,375.00 752.07,375.00 C753.93,375.00 752.93,380.64 749.96,386.92 C746.63,393.97 746.70,394.19 753.00,395.99 C781.22,404.06 824.99,408.13 846.00,404.63 C868.11,400.95 885.29,392.77 904.00,377.01 C907.03,374.46 911.72,371.54 914.44,370.53 C932.11,363.95 952.80,343.04 960.89,323.60 C962.86,318.88 963.41,315.92 963.32,310.50 C962.92,287.42 952.28,256.92 933.42,224.82 C924.46,209.57 923.92,208.75 923.33,209.33 C923.06,209.61 919.92,216.96 916.37,225.67 C912.82,234.38 910.17,240.26 910.48,238.75 C911.84,232.10 909.73,237.13 905.45,250.75 C898.78,272.01 897.66,274.01 901.56,257.71 C902.45,253.98 902.92,250.22 902.58,249.36 C902.25,248.50 904.19,240.98 906.88,232.65 C912.83,214.24 915.36,202.32 914.78,195.36 C914.46,191.51 912.62,186.64 907.77,176.82 C900.60,162.28 896.65,151.87 892.46,136.50 C887.22,117.22 882.30,110.16 869.29,103.24 C858.73,97.62 847.29,94.48 826.72,91.54 C813.26,89.62 807.68,89.60 804.08,91.46 C800.93,93.09 794.74,99.69 788.04,108.58 C785.58,111.84 781.36,116.90 778.66,119.83 C773.87,125.02 773.75,125.28 774.32,130.02 C775.04,136.15 778.70,144.77 781.14,146.08 C782.84,146.98 783.00,146.63 783.00,141.99 C783.00,136.08 784.82,132.01 788.54,129.57 C792.21,127.16 792.61,128.20 789.68,132.52 C787.63,135.54 787.11,135.87 786.75,134.35 C785.93,130.88 783.99,137.75 784.08,143.82 C784.15,148.88 784.27,149.19 785.18,146.71 C786.05,144.31 786.42,144.10 787.78,145.21 C789.14,146.31 789.27,146.25 788.69,144.75 C787.04,140.57 786.99,139.71 788.55,142.50 C789.47,144.15 792.09,147.44 794.36,149.81 L 798.50 154.12 L 804.22 153.47 C808.50,152.98 811.09,153.25 814.51,154.56 C818.30,156.00 819.47,156.09 821.41,155.05 C823.15,154.11 824.27,154.08 825.81,154.90 C828.93,156.57 838.71,156.23 842.73,154.32 C847.26,152.18 856.51,143.61 862.01,136.49 C864.36,133.44 866.45,131.12 866.65,131.32 C867.99,132.66 858.37,149.74 853.22,155.18 C850.90,157.62 849.92,159.47 850.29,160.68 C850.60,161.68 852.00,165.65 853.40,169.50 C856.51,178.00 856.85,189.43 854.37,202.14 C852.28,212.88 852.29,226.11 854.38,232.00 C855.73,235.78 855.74,236.19 854.49,234.56 C853.11,232.76 853.00,232.75 853.00,234.42 C853.00,235.56 852.48,236.02 851.58,235.67 C850.80,235.37 849.92,235.77 849.61,236.56 C849.30,237.38 849.65,238.00 850.41,238.00 C851.16,238.00 853.69,240.95 856.03,244.55 C859.89,250.47 866.80,257.53 867.77,256.56 C868.24,256.10 865.92,252.37 860.78,245.29 C858.70,242.43 857.00,239.76 857.00,239.37 C857.00,238.53 868.27,253.77 869.90,256.81 C871.48,259.77 871.27,260.22 868.91,258.95 C865.08,256.90 858.92,250.72 855.34,245.33 C853.40,242.40 851.42,240.00 850.94,240.00 C848.14,240.00 846.62,261.49 848.85,269.57 C849.47,271.80 851.16,274.73 852.60,276.07 C855.01,278.31 861.64,287.46 863.40,291.00 C864.18,292.55 861.96,290.00 859.51,286.50 C858.22,284.66 858.10,284.65 858.05,286.31 C858.02,287.30 857.55,287.84 857.00,287.50 C855.41,286.52 855.84,288.15 857.75,290.38 C858.71,291.50 856.80,290.11 853.50,287.30 C846.03,280.94 836.88,275.91 826.50,272.46 C819.90,270.27 816.04,269.71 804.50,269.27 C792.26,268.81 789.37,269.02 781.50,270.97 C776.55,272.19 768.34,275.14 763.25,277.53 C753.76,281.99 752.01,281.80 755.98,276.75 C757.07,275.37 760.22,272.78 762.98,271.01 C765.74,269.24 768.00,267.40 768.00,266.93 C768.00,265.22 760.29,260.88 750.34,256.99 C734.60,250.83 725.52,248.92 709.00,248.31 C695.03,247.80 693.92,247.91 678.50,251.36 C654.97,256.63 650.21,257.20 635.78,256.41 C628.24,256.00 623.00,256.09 623.00,256.63 C623.00,257.13 627.07,261.58 632.03,266.52 C639.86,274.29 641.92,277.11 647.38,287.50 C653.52,299.18 656.65,306.22 659.35,315.03 C656.64,306.58 652.97,298.10 648.20,289.12 C643.54,280.35 641.02,277.04 631.86,267.72 C625.91,261.66 620.16,256.21 619.09,255.60 C618.02,255.00 612.64,251.44 607.13,247.70 C598.68,241.96 590.25,237.62 581.12,234.41 C592.83,238.33 603.77,243.77 612.85,250.46 C617.43,253.84 619.65,254.91 620.85,254.32 C621.76,253.87 630.15,253.49 639.50,253.48 C653.78,253.46 658.10,253.09 666.50,251.12 C694.72,244.50 707.79,243.48 725.34,246.55 C740.70,249.24 759.88,256.51 768.96,263.08 L 773.20 266.16 L 770.93 268.58 C769.67,269.91 768.85,271.00 769.10,271.00 C769.34,271.00 773.98,269.88 779.40,268.50 C795.77,264.35 817.35,265.43 832.50,271.17 C835.72,272.38 847.89,278.97 852.00,281.72 C854.48,283.38 854.47,283.37 851.80,280.45 C846.76,274.94 844.66,268.47 844.67,258.50 C844.67,249.39 846.86,238.49 849.52,234.36 C850.62,232.66 850.68,230.95 849.84,225.84 C848.96,220.54 849.14,217.05 850.89,205.47 C853.85,185.90 853.69,180.14 849.84,168.81 C848.11,163.69 846.73,158.67 846.79,157.66 C846.86,156.31 846.45,156.02 845.19,156.55 C837.39,159.87 835.42,160.20 829.50,159.16 C826.20,158.58 822.27,158.36 820.76,158.67 C819.23,158.98 816.18,158.49 813.84,157.55 C810.63,156.27 808.15,156.04 803.23,156.57 L 796.81 157.25 L 791.41 151.44 C786.96,146.66 786.00,146.02 786.00,147.82 C786.00,150.51 782.57,150.79 779.11,148.36 C775.91,146.12 772.08,137.06 771.34,130.00 L 770.73 124.16 L 775.67 118.83 C778.39,115.90 782.13,111.47 783.99,109.00 C798.17,90.13 802.03,87.00 811.08,87.00 C818.98,87.00 843.26,90.85 852.89,93.63 C870.04,98.59 882.87,106.78 888.47,116.37 C889.80,118.64 892.92,127.47 895.42,136.00 C901.09,155.37 904.63,164.57 911.47,177.66 C918.12,190.41 918.96,195.42 916.56,208.35 C915.63,213.38 914.44,218.81 913.93,220.41 C911.90,226.72 913.90,223.55 917.49,214.77 C919.57,209.67 921.63,205.11 922.06,204.63 C923.54,202.98 927.57,208.53 937.23,225.50 C952.41,252.20 960.06,271.03 963.91,291.24 C967.72,311.18 967.55,316.53 962.79,326.79 C953.51,346.78 933.11,366.75 914.78,373.78 C912.43,374.68 907.58,377.88 904.00,380.88 C886.93,395.23 868.90,403.68 847.26,407.46 C825.45,411.28 782.46,407.37 753.00,398.89 L 742.51 395.87 L 740.14 398.69 C724.32,417.51 714.37,427.26 674.50,463.04 C647.72,487.07 636.37,495.72 627.98,498.51 C619.85,501.21 619.52,500.47 624.09,489.80 C629.24,477.79 632.99,465.44 633.02,460.45 C633.08,450.53 634.56,448.03 644.44,441.19 C649.99,437.35 649.98,436.27 644.40,438.63 C642.26,439.54 637.40,441.09 633.60,442.08 C628.24,443.48 625.79,444.77 622.60,447.86 C617.02,453.27 607.77,459.46 597.94,464.65 C604.22,461.19 610.12,457.18 615.49,452.67 C620.84,448.18 626.52,443.67 628.11,442.66 C629.70,441.64 631.00,440.33 631.00,439.74 C631.00,439.15 633.66,435.68 636.90,432.03 C648.66,418.80 657.33,401.07 661.85,382.21 C657.50,400.48 649.10,417.89 636.99,432.85 L 631.85 439.19 L 635.18 438.55 C637.00,438.19 642.55,435.94 647.50,433.53 C654.51,430.13 655.84,429.72 653.50,431.67 C651.52,433.32 651.25,433.81 652.68,433.09 C656.28,431.30 657.50,431.79 655.40,434.19 C653.56,436.31 653.61,436.30 657.00,434.03 C663.50,429.67 684.45,407.57 691.00,398.16 C698.47,387.43 700.97,384.20 698.47,388.50 C687.89,406.73 662.42,433.06 642.88,445.97 C637.81,449.32 636.97,451.08 636.01,460.38 C635.21,468.12 633.64,473.57 627.66,489.25 ZM 289.50 354.47 C271.67,357.58 256.57,355.33 242.50,347.46 C233.42,342.39 225.04,334.00 229.05,334.00 C229.62,334.00 234.23,335.97 239.30,338.38 C253.67,345.23 259.25,346.47 275.50,346.47 C288.62,346.47 290.07,346.28 298.50,343.33 C309.67,339.44 320.37,333.44 329.50,325.97 C341.03,316.53 344.76,316.83 336.01,326.49 C320.88,343.20 307.30,351.37 289.50,354.47 ZM 824.43 353.44 C812.17,356.73 794.28,356.13 781.36,351.99 C768.79,347.97 752.61,336.13 742.89,323.86 C736.88,316.27 741.76,317.54 752.31,326.31 C761.06,333.58 774.37,340.85 785.00,344.16 C791.41,346.16 794.54,346.49 806.50,346.45 C820.93,346.39 828.28,344.90 840.45,339.54 C843.32,338.28 844.09,338.18 843.26,339.18 C842.61,339.97 842.47,341.14 842.93,341.89 C843.59,342.96 844.26,342.87 846.41,341.46 C848.94,339.81 851.76,336.00 850.47,336.00 C850.14,336.00 848.96,336.49 847.85,337.08 C846.74,337.68 845.60,337.93 845.32,337.65 C844.75,337.08 850.34,334.00 851.95,334.00 C854.40,334.00 852.65,337.15 847.88,341.32 C841.99,346.48 832.95,351.15 824.43,353.44 ZM 1126.95 0.00 L 1135.05 0.00 L 1134.77 18.14 C1134.53,34.15 1134.29,36.41 1132.75,37.39 C1131.47,38.19 1130.53,38.19 1129.25,37.39 C1127.71,36.41 1127.47,34.15 1127.23,18.14 ZM 264.20 352.05 C276.02,353.92 293.50,351.71 304.70,346.92 C310.06,344.63 319.30,338.96 318.67,338.34 C318.45,338.12 314.57,339.73 310.04,341.92 C297.54,347.97 285.50,350.41 271.69,349.70 C265.54,349.38 257.87,348.39 254.66,347.51 C251.45,346.62 248.33,346.06 247.73,346.26 C246.05,346.82 258.24,351.10 264.20,352.05 ZM 793.92 352.00 C806.47,354.00 826.22,351.25 834.00,346.41 C835.38,345.56 835.70,345.11 834.72,345.41 C823.32,348.93 819.72,349.44 806.50,349.46 C790.63,349.48 785.07,348.28 771.14,341.87 C762.23,337.77 761.73,338.97 770.33,343.80 C776.78,347.42 786.62,350.84 793.92,352.00 ZM 488.98 240.31 C485.52,241.90 482.04,243.70 478.50,245.73 C448.77,262.74 428.13,290.06 419.21,324.12 C421.36,315.10 424.84,306.26 430.41,294.91 C442.48,270.27 462.16,251.63 487.32,241.01 C487.88,240.77 488.43,240.54 488.98,240.31 ZM 707.00 363.00 C704.24,368.50 701.76,373.00 701.48,373.00 C701.21,373.00 704.37,366.25 708.50,358.00 C712.63,349.75 716.19,343.00 716.41,343.00 C716.99,343.00 713.13,360.21 712.39,360.91 C712.05,361.23 712.09,359.59 712.47,357.25 C712.86,354.91 712.92,353.00 712.60,353.00 C712.28,353.00 709.76,357.50 707.00,363.00 ZM 436.41 421.22 C445.64,435.04 457.78,447.10 472.39,456.71 C478.06,460.43 483.56,463.54 489.19,466.14 C481.19,462.77 473.68,458.86 467.64,454.80 C460.30,449.86 442.11,431.75 439.64,426.93 C439.09,425.84 437.86,423.69 436.41,421.22 ZM 748.25 328.49 C752.06,332.77 753.58,333.92 753.82,332.69 C754.09,331.32 754.55,331.20 756.32,332.08 C759.08,333.43 749.45,324.74 745.75,322.53 C741.62,320.07 742.41,321.94 748.25,328.49 ZM 326.00 334.14 C324.34,336.56 325.43,335.82 329.92,331.50 C333.34,328.20 336.58,324.71 337.11,323.75 C338.94,320.42 335.64,321.90 329.50,327.15 C325.61,330.49 324.34,332.02 325.90,331.53 L 328.30 330.77 ZM 215.00 298.89 C215.00,299.78 215.33,300.01 215.81,299.45 C225.69,287.83 227.20,285.82 225.24,286.87 C223.44,287.84 223.00,287.81 223.00,286.74 C223.00,286.00 223.56,284.75 224.24,283.95 C225.19,282.84 225.09,282.85 223.80,284.00 C221.49,286.06 215.00,297.04 215.00,298.89 ZM 899.98 289.19 C900.01,294.80 898.35,294.62 896.97,288.86 C895.61,283.20 896.09,270.81 898.01,262.18 C899.81,254.10 900.18,256.58 898.49,265.41 C896.26,277.06 896.66,290.71 899.12,286.83 C899.67,285.97 899.97,286.79 899.98,289.19 ZM 850.68 154.75 C849.56,155.99 848.97,157.00 849.36,157.00 C850.44,157.00 856.22,150.23 858.85,145.89 C862.20,140.35 859.52,140.87 854.51,146.73 C852.10,149.54 851.23,151.13 852.31,150.71 C854.38,149.92 853.86,151.21 850.68,154.75 ZM 684.73 816.30 C684.27,817.69 661.48,818.59 660.65,817.25 C660.11,816.37 661.88,807.00 662.59,807.00 C662.83,807.00 662.73,808.85 662.37,811.10 C661.89,814.09 662.09,815.44 663.11,816.09 C664.97,817.27 677.67,817.24 681.82,816.05 C684.29,815.34 685.03,815.41 684.73,816.30 ZM 869.99 304.75 C870.01,307.30 867.39,305.88 865.48,302.30 C864.39,300.26 862.43,297.22 861.13,295.55 C859.40,293.31 859.73,293.50 862.40,296.25 C864.39,298.31 866.25,300.00 866.53,300.00 C866.80,300.00 866.37,298.42 865.56,296.50 C864.76,294.58 864.32,293.00 864.60,293.00 C865.29,293.00 869.98,303.22 869.99,304.75 ZM 318.60 276.86 C324.90,280.18 327.17,279.32 322.75,275.30 C319.77,272.59 315.46,270.31 316.51,272.01 C316.92,272.68 316.68,273.58 315.98,274.01 C315.10,274.56 315.90,275.43 318.60,276.86 ZM 757.00 277.58 C757.00,278.84 757.45,278.84 760.49,277.57 C762.41,276.77 764.77,275.65 765.74,275.09 C767.38,274.13 767.37,274.06 765.60,274.03 C763.72,274.00 763.72,273.96 765.60,271.85 L 767.50 269.71 L 765.00 271.00 C760.31,273.41 757.00,276.13 757.00,277.58 ZM 369.61 351.35 C372.10,356.22 373.95,360.38 373.74,360.59 C373.53,360.80 372.61,359.41 371.70,357.49 C370.04,354.02 368.08,352.86 367.91,355.25 C367.77,357.16 365.03,346.79 365.07,344.50 C365.09,343.40 367.13,346.48 369.61,351.35 ZM 234.24 340.58 C237.98,344.01 239.71,344.96 238.43,342.89 C238.05,342.28 238.35,341.40 239.10,340.94 C240.07,340.34 239.19,339.54 236.00,338.11 C233.55,337.02 231.31,336.35 231.03,336.64 C230.74,336.93 232.19,338.70 234.24,340.58 ZM 293.35 143.30 C291.85,146.18 291.85,146.37 293.30,145.16 C294.19,144.43 295.38,144.12 295.96,144.47 C297.30,145.30 297.34,137.07 296.00,135.00 C295.27,133.86 295.03,134.30 295.02,136.80 C295.01,138.61 294.26,141.54 293.35,143.30 ZM 184.41 287.50 C183.19,295.71 180.92,295.77 181.13,287.58 C181.25,282.85 181.31,282.74 181.96,286.00 C182.40,288.20 182.88,288.94 183.25,288.00 C183.58,287.17 184.10,285.83 184.42,285.00 C184.74,284.17 184.74,285.30 184.41,287.50 ZM 673.74 762.73 C673.94,763.33 673.67,765.32 673.14,767.16 C672.36,769.87 672.16,770.05 672.09,768.13 C672.01,766.02 671.81,765.91 670.29,767.13 C669.23,767.98 669.49,767.20 670.98,765.08 C672.30,763.19 673.55,762.14 673.74,762.73 ZM 906.91 251.50 C906.94,252.05 906.33,254.52 905.55,257.00 C904.77,259.48 904.14,260.60 904.14,259.50 C904.15,257.41 906.80,249.75 906.91,251.50 ZM 909.87 243.00 C909.89,243.82 909.29,245.85 908.54,247.50 C907.78,249.15 907.15,249.82 907.13,249.00 C907.11,248.18 907.71,246.15 908.46,244.50 C909.22,242.85 909.85,242.18 909.87,243.00 ZM 541.84 227.48 C524.64,227.25 505.99,230.97 489.82,237.54 C503.17,232.05 514.23,229.42 528.80,227.97 C533.05,227.55 537.42,227.39 541.84,227.48 ZM 656.77 680.19 C656.27,681.68 654.00,682.50 654.00,681.19 C654.00,680.65 654.71,679.94 655.58,679.61 C656.56,679.23 657.01,679.46 656.77,680.19 ZM 423.62 402.97 C418.42,391.13 415.18,378.22 413.96,365.03 C415.22,377.78 418.41,390.55 423.62,402.97 ZM 561.68 477.40 C568.48,476.20 575.16,474.40 581.61,472.05 C580.28,472.55 578.96,473.01 577.68,473.43 C561.31,478.74 544.12,480.48 527.19,478.74 C538.61,479.86 550.21,479.43 561.68,477.40 ZM 556.94 231.10 C549.82,230.24 542.32,229.99 534.09,230.29 C526.23,230.58 519.11,231.35 512.38,232.69 C519.28,231.22 526.26,230.50 534.63,230.23 C542.61,229.97 549.95,230.24 556.94,231.10 ZM 419.28 382.05 C421.49,391.27 424.75,400.13 428.97,408.48 C424.65,400.18 421.42,391.36 419.28,382.05 ZM 417.66 319.98 C418.65,316.27 419.80,312.61 421.12,309.02 C421.65,307.60 422.31,306.00 423.07,304.29 C420.91,309.40 419.11,314.64 417.66,319.98 ZM 416.64 341.30 C416.30,346.14 416.14,351.37 416.18,356.27 C416.12,353.13 416.16,349.94 416.31,346.71 C416.40,344.84 416.50,343.05 416.64,341.30 ZM 556.91 228.71 C556.00,228.58 555.08,228.46 554.14,228.35 C555.07,228.46 555.99,228.58 556.91,228.71 Z" fill="#FFC107"/>
<path d="M 657.08 679.00 L 656.84 679.83 C656.82,679.39 656.37,679.30 655.58,679.61 C654.71,679.94 654.00,680.65 654.00,681.19 C654.00,681.32 654.02,681.43 654.06,681.52 L 638.42 681.66 C628.56,681.76 619.71,681.61 618.75,681.34 C616.35,680.67 616.50,679.11 620.44,663.29 C622.33,655.71 625.00,644.78 626.37,639.00 C628.71,629.13 636.72,595.93 646.02,557.61 C652.00,532.93 657.74,523.23 669.86,517.27 L 675.50 514.50 L 742.25 514.22 C778.96,514.06 809.00,514.11 809.00,514.32 C809.00,514.53 804.96,523.09 800.02,533.35 L 791.04 552.00 L 740.59 552.00 C738.37,552.00 736.23,552.00 734.19,552.00 C695.61,551.99 689.00,551.99 687.25,554.91 C686.79,555.66 686.67,556.62 686.39,557.82 C686.06,559.29 684.91,564.05 683.84,568.38 C682.77,572.72 682.12,576.88 682.41,577.63 C682.84,578.75 689.59,579.00 719.97,579.00 C740.34,579.00 757.00,579.15 757.00,579.34 C757.00,579.52 753.23,587.96 748.62,598.09 L 740.25 616.50 L 706.22 616.76 L 672.20 617.03 L 665.02 646.76 C661.06,663.12 657.49,677.62 657.08,679.00 ZM 930.23 681.10 C927.83,682.02 899.49,682.15 895.75,681.27 C893.44,680.72 893.53,679.29 896.56,667.48 C897.97,661.99 904.08,637.92 910.14,614.00 C916.19,590.08 922.01,567.12 923.06,563.00 C923.34,561.88 923.63,560.87 923.88,559.96 C924.72,556.98 925.24,555.10 924.56,553.92 C923.40,551.91 918.71,551.93 906.04,551.98 C903.78,551.99 901.26,552.00 898.47,552.00 C876.72,552.00 871.84,551.75 871.40,550.61 C871.11,549.84 872.82,541.40 875.19,531.86 L 879.52 514.50 L 953.76 514.24 C994.58,514.10 1027.96,514.10 1027.96,514.24 C1027.94,514.38 1025.80,522.83 1023.21,533.00 L 1018.50 551.50 L 991.81 551.77 C967.40,552.01 965.08,552.18 964.57,553.78 C963.93,555.79 942.88,639.22 936.80,663.82 C933.13,678.67 932.54,680.23 930.23,681.10 ZM 684.73 816.30 C685.03,815.41 684.29,815.34 681.82,816.05 C677.67,817.24 664.97,817.27 663.11,816.09 C662.09,815.44 661.89,814.09 662.37,811.10 C662.70,809.00 662.81,807.26 662.64,807.03 L 662.64 807.01 C665.23,800.80 672.13,771.97 671.81,768.68 C671.50,765.50 671.50,765.50 667.10,772.00 C654.09,791.20 639.75,810.00 638.09,810.00 C635.42,810.00 629.85,805.91 627.86,802.50 C626.90,800.85 624.53,791.43 622.58,781.57 C620.64,771.71 618.65,763.25 618.17,762.77 C617.16,761.76 616.97,762.42 609.53,792.99 C605.79,808.37 603.51,815.89 602.33,816.74 C600.38,818.17 583.31,818.49 581.18,817.14 C579.74,816.22 580.50,812.69 594.41,756.07 C603.85,717.61 604.29,716.94 620.07,716.18 C625.10,715.94 629.57,716.17 630.10,716.70 C630.62,717.22 632.16,723.46 633.52,730.57 C641.20,770.59 641.30,771.00 642.58,769.94 C643.27,769.36 650.51,759.63 658.66,748.30 C666.82,736.98 675.41,725.08 677.75,721.85 L 682.00 716.00 L 695.50 716.00 C702.92,716.00 709.00,716.28 709.00,716.62 C709.00,716.96 706.95,725.62 704.44,735.87 C701.93,746.12 696.76,767.33 692.94,783.00 C689.13,798.67 685.65,812.85 685.22,814.50 L 684.43 817.50 L 677.99 817.50 C681.70,817.21 684.57,816.78 684.73,816.30 ZM 449.07 816.89 C443.37,818.11 395.92,818.24 389.80,817.05 C380.36,815.22 372.86,806.22 372.86,796.76 C372.86,793.73 375.25,781.56 378.41,768.47 C388.39,727.19 389.62,724.07 397.78,719.28 L 402.50 716.50 L 444.25 716.20 L 486.00 715.90 L 486.00 718.08 C486.00,720.98 481.91,736.16 480.71,737.75 C479.98,738.71 471.84,739.00 446.13,739.02 C427.63,739.02 411.92,739.40 411.20,739.85 C410.05,740.59 402.44,769.26 399.02,785.74 C398.97,785.98 398.92,786.22 398.87,786.46 C398.23,789.56 397.81,791.53 398.58,792.79 C399.92,795.01 404.91,795.00 418.67,795.00 C419.27,795.00 419.87,795.00 420.50,795.00 C435.50,795.00 441.02,794.68 441.77,793.75 C442.33,793.06 443.58,789.65 444.55,786.16 C446.05,780.76 446.11,779.68 444.91,778.92 C444.13,778.43 435.51,778.02 425.75,778.02 L 408.00 778.00 L 408.08 775.75 C408.13,774.51 409.15,769.67 410.35,765.00 L 412.54 756.50 L 444.84 756.24 C475.30,755.99 477.11,756.07 476.63,757.74 C476.35,758.71 473.86,768.83 471.09,780.23 C468.33,791.63 465.18,802.68 464.10,804.80 C461.05,810.78 455.05,815.61 449.07,816.89 ZM 513.43 389.42 C514.92,383.49 518.00,367.64 518.00,365.91 C518.00,364.17 516.82,364.03 500.36,363.77 C489.11,363.60 484.69,363.39 482.84,362.71 C484.69,363.37 489.17,363.50 501.03,363.50 L 519.33 363.50 L 520.06 361.00 C520.46,359.62 521.81,353.55 523.06,347.50 C526.47,330.95 530.70,324.10 539.95,320.12 C544.83,318.02 545.76,317.99 596.05,318.24 L 647.18 318.50 L 637.44 331.50 L 627.70 344.50 L 553.53 345.50 L 552.34 348.00 C550.58,351.72 548.49,362.83 549.39,363.72 C549.81,364.15 563.44,364.63 579.67,364.79 C604.87,365.04 609.10,365.30 608.63,366.53 C607.89,368.45 595.32,385.78 592.14,389.25 L 589.63 392.00 L 565.85 392.00 C544.21,392.00 541.99,392.16 541.17,393.75 C540.68,394.71 537.92,405.32 535.03,417.32 L 529.79 439.14 L 519.15 444.17 C518.31,444.57 517.50,444.95 516.74,445.31 C505.56,450.60 502.84,451.89 502.19,451.21 C501.98,450.99 501.99,450.57 502.00,450.01 C502.00,449.89 502.00,449.76 502.00,449.63 C502.00,448.32 503.32,441.00 504.94,433.37 C506.55,425.74 509.07,413.88 510.52,407.00 C511.98,400.12 513.25,394.05 513.34,393.50 C513.44,392.87 505.33,392.31 491.50,392.00 C489.72,391.96 488.09,391.92 486.58,391.88 C488.29,391.90 490.14,391.91 492.14,391.92 L 512.78 392.00 ZM 451.22 680.44 C450.03,681.63 444.39,680.87 442.26,679.23 C439.27,676.92 435.78,666.81 435.62,660.00 C435.51,654.72 435.63,654.43 438.82,652.84 C444.49,650.01 446.12,647.87 451.99,635.50 C457.59,623.72 460.70,619.77 468.94,614.00 C472.35,611.61 473.85,605.30 474.60,590.08 C475.34,575.22 475.50,574.65 481.44,565.85 C483.14,563.33 485.51,557.29 487.07,551.50 C488.56,546.00 490.27,540.23 490.88,538.68 C492.48,534.67 492.30,534.00 489.65,534.00 C488.36,534.00 485.84,533.49 484.06,532.87 C479.97,531.44 478.71,532.64 477.06,539.50 C476.40,542.25 474.70,547.10 473.28,550.28 C470.90,555.61 470.80,556.37 472.01,560.04 C473.24,563.76 473.18,564.18 471.01,566.49 C467.93,569.77 465.47,570.44 461.93,568.97 C458.00,567.34 458.03,563.50 462.00,558.50 C463.65,556.42 465.00,554.44 465.00,554.08 C465.00,553.73 465.69,547.86 466.53,541.05 C469.13,520.12 470.76,518.61 491.00,518.48 C497.88,518.44 505.22,518.03 507.33,517.57 C511.83,516.60 513.86,513.47 512.10,510.19 C510.28,506.79 510.82,502.32 513.41,499.31 C515.52,496.86 516.53,496.50 521.39,496.50 C526.13,496.50 527.36,496.91 529.70,499.25 C531.97,501.52 532.56,503.18 533.07,508.75 C533.47,513.19 533.29,516.01 532.54,517.00 C531.90,517.83 530.86,519.74 530.21,521.25 C529.50,522.92 528.27,524.00 527.08,524.00 C523.77,524.00 523.91,525.56 527.54,528.76 C530.95,531.78 531.00,531.95 531.00,539.91 C531.00,544.36 531.40,548.00 531.88,548.00 C532.37,548.00 534.39,546.20 536.38,544.00 C539.73,540.29 540.00,539.53 540.00,533.70 C540.00,526.74 541.02,525.00 545.12,525.00 C551.70,525.00 552.62,527.92 548.50,535.75 C547.12,538.36 544.59,544.03 542.86,548.35 C540.64,553.92 538.23,557.81 534.54,561.77 C528.43,568.34 527.18,568.27 523.56,561.12 C522.17,558.38 520.51,555.82 519.87,555.42 C519.17,554.99 517.00,556.65 514.41,559.60 C509.60,565.08 507.24,569.68 508.61,570.93 C509.10,571.37 512.91,572.87 517.07,574.24 C523.91,576.50 527.18,578.45 537.75,586.59 C541.38,589.38 541.90,592.36 539.54,596.92 C537.36,601.13 521.70,614.75 511.24,621.53 C506.17,624.81 502.02,627.95 502.01,628.51 C502.01,629.06 499.52,632.35 496.50,635.82 C493.48,639.29 491.00,642.93 491.00,643.91 C491.00,644.89 490.06,646.54 488.91,647.58 C486.86,649.44 486.79,649.44 485.41,647.55 C483.40,644.79 483.67,637.90 486.11,629.87 C488.65,621.50 489.99,620.00 494.94,620.00 C499.86,620.00 503.05,617.43 507.09,610.22 C510.76,603.68 513.81,600.00 515.55,600.00 C516.21,600.00 517.32,599.33 518.00,598.50 C519.08,597.20 518.38,596.97 512.62,596.81 C511.63,596.78 510.71,596.75 509.86,596.72 C502.76,596.50 500.60,596.43 499.60,597.48 C499.04,598.05 498.84,598.98 498.35,600.41 C497.53,602.78 493.65,607.88 488.47,613.41 C465.92,637.46 452.20,652.83 451.71,654.58 C451.42,655.63 450.60,659.54 449.90,663.26 C448.80,669.09 448.85,670.71 450.20,674.96 C451.07,677.67 451.53,680.14 451.22,680.44 ZM 815.22 681.11 C812.87,682.00 784.05,682.17 780.75,681.31 C778.28,680.67 778.51,678.14 782.44,662.33 C788.73,637.07 803.63,575.96 809.11,553.00 C813.77,533.44 820.63,522.73 832.00,517.27 C836.47,515.12 839.33,514.54 847.25,514.19 C853.28,513.93 857.00,514.14 857.00,514.75 C857.00,516.55 850.35,544.74 835.01,608.00 C828.94,633.03 822.53,659.51 820.77,666.86 C817.99,678.49 817.27,680.33 815.22,681.11 ZM 399.59 411.46 C397.68,409.37 396.35,407.74 395.89,406.87 C395.13,405.42 391.28,399.45 387.35,393.61 C379.75,382.33 372.06,368.11 369.99,361.50 C369.30,359.30 368.41,357.05 368.00,356.50 C367.28,355.52 366.03,350.68 365.45,347.26 C366.20,351.06 367.81,356.70 367.91,355.25 C368.08,352.86 370.04,354.02 371.70,357.49 C372.61,359.41 373.53,360.80 373.74,360.59 C373.85,360.49 373.44,359.41 372.70,357.75 C382.93,378.61 393.37,395.46 404.07,408.35 C399.50,403.12 398.62,402.41 400.74,405.50 C404.37,410.81 414.68,421.51 420.47,425.98 C424.10,428.78 425.68,430.58 424.92,431.05 C424.27,431.45 424.08,432.32 424.49,432.99 C426.83,436.78 419.03,430.21 408.00,419.11 C401.37,412.43 397.70,409.11 399.59,411.46 ZM 707.00 363.00 C709.76,357.50 712.28,353.00 712.60,353.00 C712.92,353.00 712.86,354.91 712.47,357.25 C712.18,359.04 712.09,360.43 712.22,360.83 C709.15,369.50 704.42,379.01 698.39,388.64 L 698.47 388.50 C700.97,384.20 698.47,387.43 691.00,398.16 C684.45,407.57 663.50,429.67 657.00,434.03 C653.61,436.30 653.56,436.31 655.40,434.19 C657.50,431.79 656.28,431.30 652.68,433.09 C651.25,433.81 651.52,433.32 653.50,431.67 C655.84,429.72 654.51,430.13 647.50,433.53 C642.55,435.94 637.00,438.19 635.18,438.55 L 631.85 439.19 L 635.18 438.54 C637.00,438.19 643.12,435.65 648.77,432.91 C656.49,429.17 660.79,426.27 666.09,421.28 C680.38,407.79 691.21,392.53 703.42,368.42 C702.10,371.24 701.34,373.00 701.48,373.00 C701.76,373.00 704.24,368.50 707.00,363.00 ZM 909.87 243.00 C909.85,242.18 909.22,242.85 908.46,244.50 C907.71,246.15 907.11,248.18 907.13,249.00 C907.15,249.82 907.78,249.15 908.54,247.50 C908.64,247.26 908.75,247.02 908.85,246.77 C904.08,261.51 901.29,274.28 900.34,285.54 C900.24,286.73 900.11,287.87 899.98,288.90 C899.95,286.72 899.65,286.00 899.12,286.83 C896.66,290.71 896.26,277.06 898.49,265.41 C899.42,260.54 899.72,257.61 899.51,257.30 C899.64,257.00 899.77,256.78 899.88,256.63 C900.40,256.01 901.13,253.70 901.51,251.50 C901.75,250.12 902.80,246.27 904.20,241.56 C903.04,245.77 902.38,248.83 902.58,249.36 C902.92,250.22 902.45,253.98 901.56,257.71 C897.66,274.01 898.78,272.01 905.45,250.75 C909.73,237.13 911.84,232.10 910.48,238.75 C910.17,240.26 912.82,234.38 916.37,225.67 C917.46,223.00 918.51,220.46 919.45,218.21 C918.72,220.02 917.87,222.17 916.86,224.71 C914.13,231.56 911.75,238.04 909.70,244.19 C909.82,243.70 909.88,243.28 909.87,243.00 ZM 184.41 287.50 C184.74,285.30 184.74,284.17 184.42,285.00 C184.10,285.83 183.58,287.17 183.25,288.00 C182.88,288.94 182.40,288.20 181.96,286.00 C181.31,282.74 181.25,282.85 181.13,287.58 C181.11,288.24 181.11,288.84 181.13,289.38 C181.03,288.22 180.98,286.82 180.98,285.19 C180.95,277.12 180.84,276.50 176.47,260.50 C176.42,260.31 176.36,260.12 176.31,259.93 C177.62,264.61 178.92,268.64 178.95,267.50 C178.97,266.40 178.51,263.79 177.93,261.69 C177.35,259.60 177.06,257.35 177.29,256.69 C177.52,256.04 178.26,258.08 178.92,261.23 C179.59,264.39 180.60,267.25 181.17,267.61 C181.81,268.00 182.01,267.52 181.68,266.38 C180.70,262.93 179.82,256.00 180.36,256.00 C180.66,256.00 181.43,258.71 182.09,262.03 C182.74,265.35 183.48,267.86 183.72,267.61 C183.79,267.54 183.83,267.42 183.86,267.23 C185.53,276.91 185.54,284.50 183.94,290.28 C183.82,290.72 183.70,291.11 183.58,291.46 C183.88,290.47 184.17,289.15 184.41,287.50 ZM 853.14 225.76 C854.06,232.82 856.79,238.36 862.91,246.71 C863.68,247.77 864.39,248.75 865.05,249.66 C861.36,244.54 857.00,238.84 857.00,239.37 C857.00,239.76 858.70,242.43 860.78,245.29 C865.92,252.37 868.24,256.10 867.77,256.56 C866.80,257.53 859.89,250.47 856.03,244.55 C853.69,240.95 851.16,238.00 850.41,238.00 C849.65,238.00 849.30,237.38 849.61,236.56 C849.92,235.77 850.80,235.37 851.58,235.67 C852.48,236.02 853.00,235.56 853.00,234.42 C853.00,232.75 853.11,232.76 854.49,234.56 C855.74,236.19 855.73,235.78 854.38,232.00 C853.81,230.40 853.40,228.25 853.14,225.76 ZM 232.58 236.33 L 230.63 238.25 C229.37,239.49 226.66,242.84 224.62,245.70 C220.82,251.01 215.13,256.46 214.28,255.61 C214.02,255.35 215.53,252.61 217.65,249.51 C219.77,246.42 222.96,241.55 224.75,238.69 C226.55,235.81 227.99,234.28 228.00,235.26 C228.00,236.76 228.29,236.84 229.98,235.78 C231.09,235.09 231.57,234.17 231.08,233.68 C230.59,233.19 230.66,231.23 231.23,229.16 C231.63,227.74 231.81,225.28 231.81,222.22 C231.83,225.22 231.66,227.63 231.30,229.00 C230.56,231.76 230.74,233.13 232.14,235.51 C232.29,235.76 232.44,236.03 232.58,236.33 ZM 863.28 290.76 C863.73,291.51 864.17,292.26 864.60,293.00 L 864.60 293.00 C864.32,293.00 864.76,294.58 865.56,296.50 C866.37,298.42 866.80,300.00 866.53,300.00 C866.25,300.00 864.39,298.31 862.40,296.25 C859.73,293.50 859.40,293.31 861.13,295.55 C862.43,297.22 864.39,300.26 865.48,302.30 C865.18,301.84 864.89,301.35 864.59,300.82 C857.87,288.85 844.05,278.49 827.06,272.70 C824.92,271.96 823.12,271.40 821.36,270.97 C823.01,271.36 824.65,271.84 826.50,272.46 C836.88,275.91 846.03,280.94 853.50,287.30 C856.80,290.11 858.71,291.50 857.75,290.38 C855.84,288.15 855.41,286.52 857.00,287.50 C857.55,287.84 858.02,287.30 858.05,286.31 C858.10,284.65 858.22,284.66 859.51,286.50 C861.96,290.00 864.18,292.55 863.40,291.00 C863.36,290.92 863.32,290.84 863.28,290.76 ZM 732.90 402.51 C739.35,395.01 743.70,388.72 748.23,380.76 C748.97,379.46 749.71,378.26 750.36,377.29 C749.75,378.63 748.15,381.35 746.48,383.89 C744.53,386.85 743.08,389.42 743.26,389.59 C743.44,389.77 745.11,387.59 746.97,384.75 C751.30,378.14 752.07,380.24 748.36,388.55 C745.73,394.43 744.00,396.57 744.00,393.94 C744.00,393.36 743.47,393.21 742.83,393.61 C742.04,394.09 741.87,393.78 742.30,392.66 C743.40,389.80 742.35,390.79 736.90,397.75 C735.96,398.95 734.56,400.60 732.90,402.51 ZM 331.87 379.26 L 334.50 383.45 C337.87,388.83 341.52,393.98 345.65,399.17 C344.41,397.64 343.24,396.13 342.14,394.66 C335.66,386.02 334.92,385.26 338.03,390.50 C339.73,393.36 339.93,394.11 338.71,393.13 C337.20,391.92 337.00,392.01 337.00,393.88 C337.00,395.42 336.38,396.00 334.75,395.98 C333.03,395.97 332.84,395.76 333.92,395.07 C335.11,394.32 335.01,393.43 333.27,389.41 C330.80,383.70 331.25,380.92 334.12,384.26 C335.17,385.49 334.56,383.95 332.77,380.82 ZM 224.89 150.80 C224.29,150.00 223.65,149.11 223.01,148.16 C223.06,147.86 222.50,146.59 221.47,144.75 C220.02,142.14 219.22,140.00 219.70,140.00 C220.18,140.00 223.03,142.54 226.03,145.64 C229.04,148.75 230.68,151.00 229.68,150.65 C228.17,150.12 227.99,150.39 228.56,152.26 C229.24,154.48 229.22,154.48 226.37,152.01 C225.56,151.30 225.06,150.89 224.89,150.80 ZM 748.25 328.49 C742.41,321.94 741.62,320.07 745.75,322.53 C749.45,324.74 759.08,333.43 756.32,332.08 C754.55,331.20 754.09,331.32 753.82,332.69 C753.58,333.92 752.06,332.77 748.25,328.49 ZM 326.00 334.14 L 328.30 330.77 L 325.90 331.53 C324.34,332.02 325.61,330.49 329.50,327.15 C335.64,321.90 338.94,320.42 337.11,323.75 C336.58,324.71 333.34,328.20 329.92,331.50 C325.43,335.82 324.34,336.56 326.00,334.14 ZM 215.00 298.89 C215.00,297.04 221.49,286.06 223.80,284.00 C225.09,282.85 225.19,282.84 224.24,283.95 C223.56,284.75 223.00,286.00 223.00,286.74 C223.00,287.81 223.44,287.84 225.24,286.87 C227.20,285.82 225.69,287.83 215.81,299.45 C215.33,300.01 215.00,299.78 215.00,298.89 ZM 786.75 134.35 C787.10,135.84 787.61,135.55 789.59,132.65 C788.16,134.75 787.00,137.05 787.00,137.77 C787.00,139.53 788.88,143.09 791.34,146.37 C790.12,144.86 789.07,143.42 788.55,142.50 C786.99,139.71 787.04,140.57 788.69,144.75 C789.27,146.25 789.14,146.31 787.78,145.21 C786.42,144.10 786.05,144.31 785.18,146.71 C784.27,149.19 784.15,148.88 784.08,143.82 C783.99,137.75 785.93,130.88 786.75,134.35 ZM 850.68 154.75 C853.86,151.21 854.38,149.92 852.31,150.71 C851.23,151.13 852.10,149.54 854.51,146.73 C859.52,140.87 862.20,140.35 858.85,145.89 C856.22,150.23 850.44,157.00 849.36,157.00 C848.97,157.00 849.56,155.99 850.68,154.75 ZM 822.53 345.32 C823.38,345.11 824.29,344.89 825.27,344.63 C830.64,343.24 838.68,340.28 843.13,338.05 C844.30,337.47 845.43,336.92 846.48,336.42 C845.65,336.97 845.13,337.46 845.32,337.65 C845.60,337.93 846.74,337.68 847.85,337.08 C848.96,336.49 850.14,336.00 850.47,336.00 C851.76,336.00 848.94,339.81 846.41,341.46 C844.26,342.87 843.59,342.96 842.93,341.89 C842.47,341.14 842.61,339.97 843.26,339.18 C844.09,338.18 843.32,338.28 840.45,339.54 C833.67,342.53 828.38,344.31 822.53,345.32 ZM 318.60 276.86 C315.90,275.43 315.10,274.56 315.98,274.01 C316.68,273.58 316.92,272.68 316.51,272.01 C315.46,270.31 319.77,272.59 322.75,275.30 C327.17,279.32 324.90,280.18 318.60,276.86 ZM 757.00 277.58 C757.00,276.13 760.31,273.41 765.00,271.00 L 767.50 269.71 L 765.60 271.85 C763.72,273.96 763.72,274.00 765.60,274.03 C767.37,274.06 767.38,274.13 765.74,275.09 C764.77,275.65 762.41,276.77 760.49,277.57 C757.45,278.84 757.00,278.84 757.00,277.58 ZM 234.24 340.58 C232.19,338.70 230.74,336.93 231.03,336.64 C231.31,336.35 233.55,337.02 236.00,338.11 C239.19,339.54 240.07,340.34 239.10,340.94 C238.35,341.40 238.05,342.28 238.43,342.89 C239.71,344.96 237.98,344.01 234.24,340.58 ZM 293.35 143.30 C294.26,141.54 295.01,138.61 295.02,136.80 C295.03,134.30 295.27,133.86 296.00,135.00 C297.34,137.07 297.30,145.30 295.96,144.47 C295.38,144.12 294.19,144.43 293.30,145.16 C291.85,146.37 291.85,146.18 293.35,143.30 ZM 673.74 762.73 C673.55,762.14 672.30,763.19 670.98,765.08 C669.49,767.20 669.23,767.98 670.29,767.13 C671.81,765.91 672.01,766.02 672.09,768.13 C672.16,770.05 672.36,769.87 673.14,767.16 C673.67,765.32 673.94,763.33 673.74,762.73 ZM 906.91 251.50 C906.80,249.75 904.15,257.41 904.14,259.50 C904.14,260.60 904.77,259.48 905.55,257.00 C906.33,254.52 906.94,252.05 906.91,251.50 ZM 231.20 158.21 L 226.53 152.86 C226.35,152.65 226.16,152.43 225.97,152.19 C226.25,152.50 226.57,152.85 226.95,153.26 C230.51,157.13 232.26,158.32 229.89,155.25 C228.79,153.83 228.95,153.85 230.77,155.40 C233.02,157.33 233.80,158.61 232.06,157.54 C231.64,157.28 231.30,157.58 231.20,158.21 ZM 691.23 399.27 C690.80,399.88 690.36,400.48 689.91,401.08 C684.23,408.79 675.71,418.02 666.74,426.47 C675.85,417.79 684.58,408.15 691.23,399.27 ZM 236.50 264.86 C236.87,261.93 236.94,258.68 236.71,255.06 C236.53,252.22 236.10,248.84 235.60,245.97 C236.44,250.01 236.98,254.39 236.99,258.07 C236.99,260.45 236.83,262.72 236.50,264.86 ZM 957.92 279.15 C953.70,265.06 947.04,249.57 938.05,232.97 C946.94,249.16 953.65,264.81 957.92,279.15 ZM 896.40 285.13 C896.15,283.14 896.00,281.05 896.00,279.15 C896.00,277.00 896.25,274.07 896.65,271.03 C896.15,276.05 896.05,281.20 896.40,285.13 ZM 329.25 381.36 C329.09,380.46 329.00,379.62 329.00,378.88 L 329.00 374.69 L 329.48 375.45 L 329.20 379.00 C329.14,379.77 329.15,380.55 329.25,381.36 ZM 795.73 151.23 C798.03,153.41 798.91,153.94 801.37,153.79 L 798.50 154.12 ZM 424.65 427.97 C428.34,430.53 432.70,433.14 436.31,435.04 C436.14,434.96 435.96,434.87 435.79,434.79 C432.33,433.15 428.50,430.78 424.65,427.97 ZM 785.28 344.25 C788.78,345.28 792.64,345.94 797.63,346.35 C792.42,346.14 789.56,345.57 785.28,344.25 ZM 456.57 382.77 C453.18,378.91 450.84,374.18 450.20,369.58 C450.89,373.91 453.34,378.95 456.57,382.77 ZM 365.13 344.29 C365.14,344.14 365.16,344.02 365.19,343.93 C365.37,343.39 367.26,346.58 369.58,351.28 C367.36,346.94 365.50,344.04 365.13,344.29 ZM 217.51 139.17 C215.35,135.26 213.88,132.00 214.26,131.41 C214.05,131.85 215.63,135.43 217.51,139.17 ZM 899.12 293.28 C899.07,293.41 899.02,293.49 898.97,293.52 C898.42,293.86 897.76,292.23 897.19,289.74 C897.87,292.23 898.59,293.41 899.12,293.28 ZM 924.13 209.60 C924.06,209.56 923.98,209.53 923.91,209.52 C923.50,209.49 923.04,210.02 922.33,211.45 C922.89,210.18 923.25,209.42 923.33,209.33 C923.52,209.15 923.70,209.10 924.13,209.60 ZM 853.50 277.00 C855.08,278.64 857.11,281.31 859.20,284.38 C857.21,281.56 855.00,278.67 853.50,277.00 ZM 445.04 458.77 C445.58,464.16 446.36,468.53 447.73,473.21 C446.36,468.53 445.58,464.17 445.04,458.80 C444.57,454.14 444.55,452.10 442.87,449.94 C443.36,450.53 443.71,451.10 443.97,451.71 C444.67,453.35 444.69,455.27 445.04,458.77 ZM 716.37 343.03 C716.07,343.35 714.51,346.24 712.35,350.41 C714.64,345.90 716.19,343.00 716.33,343.00 C716.35,343.00 716.36,343.01 716.37,343.03 ZM 869.96 304.47 C869.79,303.58 868.98,301.53 868.04,299.40 C869.12,301.62 869.83,303.43 869.96,304.47 ZM 655.68 681.51 C656.06,681.27 656.41,680.92 656.63,680.51 L 656.34 681.50 ZM 852.96 213.77 C853.18,209.87 853.65,205.85 854.37,202.14 C853.77,205.26 853.24,209.74 852.96,213.77 ZM 852.45 275.92 C851.04,274.53 849.45,271.73 848.85,269.57 C849.40,271.53 850.94,274.21 852.45,275.92 ZM 720.56 415.87 C714.89,421.70 702.83,433.07 689.93,444.92 C702.84,433.07 714.89,421.69 720.54,415.87 C721.69,414.69 722.79,413.55 723.84,412.44 C722.73,413.62 721.62,414.78 720.56,415.87 ZM 226.29 175.69 C226.87,173.05 227.71,170.31 228.82,167.17 L 229.49 165.27 C229.21,166.16 228.90,167.08 228.57,168.00 C227.58,170.78 226.83,173.27 226.29,175.69 ZM 433.17 442.13 C432.46,441.62 431.70,441.08 430.90,440.50 C429.82,439.73 428.53,438.71 427.08,437.52 C428.28,438.48 429.43,439.37 430.50,440.16 C431.46,440.87 432.34,441.52 433.17,442.13 ZM 752.23 375.01 C752.23,375.01 752.24,375.01 752.25,375.01 C753.10,375.00 753.24,376.47 752.81,378.69 C753.20,376.58 753.03,375.17 752.23,375.01 ZM 467.48 390.32 C468.84,390.72 470.40,391.02 472.27,391.24 C470.15,391.02 468.73,390.73 467.48,390.32 ZM 660.56 816.86 C660.58,817.04 660.61,817.17 660.65,817.25 C660.71,817.34 660.88,817.43 661.15,817.50 L 660.50 817.50 ZM 769.77 337.69 C763.37,334.35 757.14,330.33 752.31,326.31 C757.09,330.28 763.37,334.33 769.77,337.69 ZM 408.20 413.11 C409.88,414.97 411.56,416.73 413.26,418.39 C411.46,416.66 409.76,414.88 408.20,413.11 ZM 806.44 153.27 C809.45,153.08 811.62,153.45 814.47,154.54 C811.70,153.49 809.48,153.11 806.44,153.27 ZM 852.08 334.00 C852.09,334.00 852.10,334.00 852.12,334.00 C853.24,334.00 853.36,334.79 852.64,336.07 C853.32,334.82 853.18,334.06 852.08,334.00 ZM 225.57 180.02 C224.94,185.69 225.46,191.83 227.00,201.50 C225.46,191.82 224.93,185.74 225.57,180.02 ZM 868.90 306.01 C869.44,306.15 869.84,305.92 869.95,305.24 C869.86,306.00 869.47,306.23 868.90,306.01 ZM 214.28 131.38 C214.29,131.38 214.29,131.38 214.29,131.37 C214.53,131.14 217.29,134.08 220.43,137.92 C217.31,134.10 214.55,131.17 214.28,131.38 ZM 870.07 257.13 C870.55,257.98 870.81,258.60 870.88,258.99 C870.78,258.58 870.51,257.97 870.07,257.13 ZM 791.38 128.33 C791.99,128.54 791.43,129.95 789.68,132.52 C791.41,129.95 791.98,128.54 791.38,128.33 ZM 913.73 207.50 C914.69,202.40 915.03,198.40 914.78,195.36 C915.03,198.41 914.69,202.42 913.73,207.50 ZM 714.77 352.22 C714.91,351.64 715.04,351.05 715.16,350.47 C715.11,350.73 715.05,350.99 714.99,351.25 C714.92,351.57 714.85,351.90 714.77,352.22 ZM 788.54 129.57 C790.03,128.59 790.98,128.18 791.38,128.33 C790.97,128.19 790.02,128.60 788.54,129.57 ZM 173.62 248.50 C173.62,248.54 173.63,248.58 173.63,248.63 C173.62,248.58 173.62,248.54 173.62,248.50 C173.57,247.71 173.39,246.91 173.18,246.41 C173.40,246.91 173.57,247.71 173.62,248.50 ZM 481.71 361.90 C481.53,361.62 481.41,361.28 481.40,360.63 C481.41,361.28 481.53,361.62 481.71,361.90 C481.75,361.97 481.80,362.03 481.85,362.10 C481.80,362.03 481.75,361.97 481.71,361.90 Z" fill="#FFC107"/>
</g>
</svg>